<svg viewBox="0 0 582 473" fill="none" xmlns="http://www.w3.org/2000/svg">
<g id="Developer">
<g id="BackgroundGlobe">
<path id="Vector" d="M580.57 235.709C578.16 259.265 572.583 282.389 563.991 304.455C557.687 320.786 549.939 336.523 540.84 351.478C538.777 354.884 536.6 358.262 534.438 361.569C531.008 366.733 527.437 371.76 523.724 376.65C514.58 388.746 504.479 400.09 493.521 410.571C484.096 419.572 473.978 427.818 463.26 435.234C461.979 436.116 461.014 437.384 460.505 438.854C459.996 440.323 459.97 441.917 460.431 443.402C460.892 444.888 461.815 446.187 463.067 447.11C464.318 448.033 465.832 448.532 467.387 448.534H470.695C471.13 448.534 471.564 448.562 471.995 448.619C475.093 448.947 477.949 450.447 479.977 452.812C482.006 455.176 483.053 458.227 482.906 461.339C482.693 464.516 481.273 467.491 478.937 469.654C476.6 471.816 473.525 473.003 470.341 472.971H122.652C120.996 472.971 119.357 472.635 117.835 471.983C116.312 471.331 114.938 470.377 113.795 469.179C112.652 467.98 111.764 466.562 111.185 465.011C110.606 463.459 110.348 461.806 110.427 460.152C110.592 456.978 112.01 453.999 114.37 451.869C116.719 449.705 119.797 448.505 122.991 448.506C124.515 448.507 126.001 448.031 127.24 447.144C128.479 446.258 129.41 445.006 129.901 443.564C130.392 442.121 130.419 440.562 129.978 439.103C129.538 437.645 128.651 436.361 127.444 435.432C104.264 417.539 65.4531 380.777 43.5882 322.645C32.8184 294.038 26.1614 260.259 27.4758 220.981C32.8466 62.6838 183.667 -24.1254 359.491 5.88042C535.314 35.8863 591.029 129.678 580.57 235.709Z" fill="url(#paint0_linear_1_6)"/>
<g id="Vector_2" style="mix-blend-mode:overlay" opacity="0.08">
<path d="M493.535 410.585C485.804 425.143 478.27 438.23 472.051 448.619C463.062 463.643 456.844 472.999 456.844 472.999H122.751C121.095 472.999 119.456 472.663 117.934 472.011C116.411 471.359 115.037 470.405 113.894 469.207C112.751 468.008 111.863 466.59 111.284 465.039C110.705 463.487 110.447 461.834 110.525 460.18C110.691 457.006 112.109 454.027 114.469 451.898C116.818 449.734 119.896 448.533 123.09 448.534C124.614 448.535 126.1 448.059 127.339 447.173C128.578 446.286 129.508 445.034 130 443.592C130.491 442.15 130.518 440.59 130.077 439.131C129.636 437.673 128.75 436.389 127.542 435.46C124.249 432.916 120.659 430.019 116.829 426.697C101.336 413.313 87.4398 398.183 75.4173 381.611V381.611C62.2235 363.451 51.5233 343.605 43.6023 322.603C69.8628 349.103 108.504 376.551 157.124 379.788C253.544 386.218 434.343 207.045 513.082 238.366C563.242 258.323 526.692 348.072 493.535 410.585Z" fill="black"/>
</g>
</g>
<g id="Bricks">
<g id="LeftBricks">
<g id="Vector_3" style="mix-blend-mode:overlay" opacity="0.25">
<path d="M139.047 337.81H169.576V326.376H139.047V337.81Z" fill="black"/>
</g>
<g id="Vector_4" style="mix-blend-mode:overlay" opacity="0.25">
<path d="M104.83 337.81H135.358V326.376H104.83V337.81Z" fill="black"/>
</g>
<g id="Vector_5" style="mix-blend-mode:overlay" opacity="0.25">
<path d="M121.946 353.895H152.474V342.46H121.946V353.895Z" fill="white"/>
</g>
<g id="Vector_6" style="mix-blend-mode:overlay" opacity="0.25">
<path d="M87.7419 353.895H118.271V342.46H87.7419V353.895Z" fill="white"/>
</g>
</g>
<g id="RightBricks">
<g id="Vector_7" style="mix-blend-mode:overlay" opacity="0.25">
<path d="M379.292 42.6563H348.763V54.0905H379.292V42.6563Z" fill="black"/>
</g>
<g id="Vector_8" style="mix-blend-mode:overlay" opacity="0.25">
<path d="M413.496 42.6563H382.967V54.0905H413.496V42.6563Z" fill="black"/>
</g>
<g id="Vector_9" style="mix-blend-mode:overlay" opacity="0.25">
<path d="M396.394 58.7405H365.865V70.1746H396.394V58.7405Z" fill="white"/>
</g>
<g id="Vector_10" style="mix-blend-mode:overlay" opacity="0.25">
<path d="M430.612 58.7405H400.083V70.1746H430.612V58.7405Z" fill="white"/>
</g>
</g>
</g>
<g id="HTMLCard">
<path id="Vector_11" d="M125.629 292.712C164.853 275.804 184.427 233.739 169.347 198.758C154.268 163.778 110.246 149.128 71.0216 166.036C31.7975 182.945 12.2243 225.01 27.3039 259.991C42.3834 294.971 86.4052 309.621 125.629 292.712Z" fill="url(#paint1_radial_1_6)"/>
<path id="Vector_12" d="M134.228 149.818V242.959C134.23 243.762 134.073 244.556 133.767 245.298C133.461 246.04 133.011 246.713 132.444 247.281C131.876 247.848 131.202 248.298 130.461 248.604C129.719 248.91 128.924 249.067 128.122 249.065H10.0067C9.20552 249.065 8.41223 248.907 7.67224 248.6C6.93225 248.293 6.26008 247.843 5.69424 247.276C5.12839 246.709 4.67998 246.035 4.37468 245.295C4.06938 244.554 3.91319 243.76 3.91505 242.959V149.818C3.91505 148.202 4.55684 146.653 5.69924 145.511C6.84165 144.368 8.39107 143.726 10.0067 143.726H128.122C128.923 143.725 129.717 143.881 130.458 144.186C131.198 144.491 131.871 144.94 132.439 145.506C133.006 146.071 133.456 146.744 133.763 147.484C134.07 148.224 134.228 149.017 134.228 149.818Z" fill="url(#paint2_linear_1_6)"/>
<path id="Vector_13" d="M59.0365 159.811H15.0807C14.7751 159.812 14.4722 159.754 14.1894 159.638C13.9065 159.523 13.6493 159.352 13.4326 159.137C13.2158 158.921 13.0438 158.665 12.9265 158.383C12.8091 158.101 12.7487 157.798 12.7487 157.493V157.493C12.7524 156.877 12.9997 156.287 13.4367 155.853C13.8736 155.418 14.4647 155.175 15.0807 155.175H59.0365C59.6513 155.175 60.2409 155.419 60.6756 155.854C61.1103 156.288 61.3545 156.878 61.3545 157.493V157.493C61.3564 157.798 61.2977 158.1 61.1819 158.382C61.066 158.664 60.8954 158.92 60.6798 159.136C60.4641 159.351 60.2079 159.522 59.9258 159.638C59.6437 159.754 59.3415 159.812 59.0365 159.811V159.811Z" fill="#002A66"/>
<path id="Vector_14" d="M59.0365 175.527H15.0807C14.7751 175.529 14.4722 175.471 14.1894 175.355C13.9065 175.239 13.6493 175.069 13.4326 174.853C13.2158 174.638 13.0438 174.382 12.9265 174.1C12.8091 173.818 12.7487 173.515 12.7487 173.209V173.209C12.7487 172.904 12.8091 172.601 12.9265 172.319C13.0438 172.037 13.2158 171.781 13.4326 171.565C13.6493 171.35 13.9065 171.179 14.1894 171.064C14.4722 170.948 14.7751 170.89 15.0807 170.891H59.0365C59.3415 170.89 59.6437 170.948 59.9258 171.064C60.2079 171.18 60.4641 171.351 60.6798 171.566C60.8954 171.782 61.066 172.038 61.1819 172.32C61.2977 172.602 61.3564 172.904 61.3545 173.209V173.209C61.3564 173.514 61.2977 173.817 61.1819 174.099C61.066 174.381 60.8954 174.637 60.6798 174.853C60.4641 175.068 60.2079 175.239 59.9258 175.355C59.6437 175.47 59.3415 175.529 59.0365 175.527V175.527Z" fill="#EEF8FF"/>
<path id="Vector_15" d="M73.7356 191.244H15.0807C14.4646 191.244 13.8736 191 13.4367 190.566C12.9997 190.132 12.7524 189.542 12.7486 188.926C12.743 188.617 12.7992 188.31 12.9141 188.023C13.0289 187.736 13.2 187.474 13.4173 187.254C13.6346 187.035 13.8937 186.86 14.1794 186.742C14.4651 186.624 14.7715 186.564 15.0807 186.566H73.7356C74.3479 186.581 74.9294 186.837 75.3532 187.279C75.7769 187.722 76.0084 188.314 75.997 188.926V188.926C75.9936 189.53 75.756 190.109 75.3342 190.541C74.9124 190.974 74.3393 191.226 73.7356 191.244Z" fill="#002A66"/>
<path id="Vector_16" d="M73.7356 235.256H15.0807C14.7751 235.258 14.4722 235.2 14.1894 235.084C13.9065 234.968 13.6493 234.798 13.4326 234.582C13.2158 234.367 13.0438 234.111 12.9265 233.829C12.8091 233.547 12.7487 233.244 12.7487 232.938V232.938C12.7487 232.633 12.8091 232.33 12.9265 232.048C13.0438 231.766 13.2158 231.51 13.4326 231.294C13.6493 231.079 13.9065 230.908 14.1894 230.793C14.4722 230.677 14.7751 230.619 15.0807 230.62H73.7356C74.3405 230.635 74.9157 230.886 75.3382 231.319C75.7607 231.752 75.9972 232.333 75.997 232.938C75.9972 233.543 75.7607 234.125 75.3382 234.558C74.9157 234.991 74.3405 235.242 73.7356 235.256V235.256Z" fill="#002A66"/>
<path id="Vector_17" d="M116.405 235.256H86.8234C86.5166 235.26 86.2122 235.203 85.9277 235.088C85.6432 234.973 85.3843 234.803 85.1661 234.587C84.9478 234.372 84.7746 234.115 84.6563 233.832C84.5381 233.549 84.4772 233.245 84.4772 232.938V232.938C84.4772 232.633 84.5376 232.33 84.655 232.048C84.7724 231.766 84.9444 231.51 85.1611 231.294C85.3779 231.079 85.6351 230.908 85.9179 230.793C86.2008 230.677 86.5037 230.619 86.8093 230.62H116.405C116.711 230.619 117.014 230.677 117.297 230.793C117.579 230.908 117.837 231.079 118.053 231.294C118.27 231.51 118.442 231.766 118.56 232.048C118.677 232.33 118.737 232.633 118.737 232.938V232.938C118.737 233.244 118.677 233.547 118.56 233.829C118.442 234.111 118.27 234.367 118.053 234.582C117.837 234.798 117.579 234.968 117.297 235.084C117.014 235.2 116.711 235.258 116.405 235.256Z" fill="#EEF8FF"/>
<path id="Vector_18" d="M46.3161 201.844V208.529C46.3161 208.788 46.4189 209.036 46.6018 209.219C46.7847 209.402 47.0327 209.505 47.2914 209.505H50.9944C51.1218 209.505 51.2479 209.479 51.3655 209.43C51.483 209.381 51.5896 209.309 51.679 209.218C51.7685 209.127 51.839 209.02 51.8864 208.902C51.9339 208.783 51.9574 208.657 51.9555 208.529V201.844C51.9555 201.586 52.0582 201.338 52.2411 201.155C52.424 200.972 52.6721 200.869 52.9307 200.869H53.2841C53.5427 200.869 53.7908 200.972 53.9736 201.155C54.1565 201.338 54.2593 201.586 54.2593 201.844V220.02C54.2593 220.279 54.1565 220.527 53.9736 220.71C53.7908 220.893 53.5427 220.995 53.2841 220.995H52.9307C52.6721 220.995 52.424 220.893 52.2411 220.71C52.0582 220.527 51.9555 220.279 51.9555 220.02V212.558C51.9574 212.43 51.9339 212.304 51.8864 212.185C51.839 212.067 51.7685 211.96 51.679 211.869C51.5896 211.778 51.483 211.706 51.3655 211.657C51.2479 211.608 51.1218 211.582 50.9944 211.582H47.2914C47.0327 211.582 46.7847 211.685 46.6018 211.868C46.4189 212.051 46.3161 212.299 46.3161 212.558V220.02C46.3161 220.279 46.2134 220.527 46.0305 220.71C45.8476 220.893 45.5996 220.995 45.3409 220.995H44.9876C44.7289 220.995 44.4809 220.893 44.298 220.71C44.1151 220.527 44.0123 220.279 44.0123 220.02V201.844C44.0123 201.586 44.1151 201.338 44.298 201.155C44.4809 200.972 44.7289 200.869 44.9876 200.869H45.3409C45.5996 200.869 45.8476 200.972 46.0305 201.155C46.2134 201.338 46.3161 201.586 46.3161 201.844Z" fill="white"/>
<path id="Vector_19" d="M59.2202 202.933H57.4958C57.2372 202.933 56.9891 202.83 56.8063 202.647C56.6234 202.464 56.5206 202.216 56.5206 201.957V201.844C56.5206 201.586 56.6234 201.338 56.8063 201.155C56.9891 200.972 57.2372 200.869 57.4958 200.869H65.1987C65.4549 200.873 65.6993 200.977 65.8792 201.16C66.059 201.342 66.1598 201.588 66.1598 201.844V201.957C66.1598 202.214 66.059 202.459 65.8792 202.642C65.6993 202.824 65.4549 202.929 65.1987 202.933H63.4603C63.2016 202.933 62.9536 203.035 62.7707 203.218C62.5878 203.401 62.485 203.649 62.485 203.908V220.02C62.4869 220.148 62.4634 220.274 62.416 220.392C62.3685 220.511 62.298 220.618 62.2086 220.709C62.1192 220.8 62.0126 220.872 61.895 220.921C61.7775 220.97 61.6514 220.995 61.5239 220.995H61.1565C61.0291 220.995 60.9029 220.97 60.7854 220.921C60.6679 220.872 60.5613 220.8 60.4718 220.709C60.3824 220.618 60.3119 220.511 60.2644 220.392C60.217 220.274 60.1935 220.148 60.1954 220.02V203.908C60.1954 203.649 60.0926 203.401 59.9097 203.218C59.7269 203.035 59.4788 202.933 59.2202 202.933V202.933Z" fill="white"/>
<path id="Vector_20" d="M80.4631 212.331C80.3077 209.674 80.1522 206.678 80.2511 204.459H80.1239C79.6858 206.692 79.1487 209.081 78.5127 211.441L75.9969 220.868H74.5835L72.2232 211.823C71.5589 209.264 70.9653 206.777 70.5837 204.459H70.4848C70.4848 206.805 70.3717 209.618 70.2445 212.487L69.9053 220.063C69.8943 220.314 69.7868 220.551 69.6051 220.725C69.4233 220.899 69.1815 220.996 68.93 220.995H68.8311C68.6981 220.996 68.5665 220.969 68.4444 220.916C68.3222 220.864 68.2121 220.787 68.1207 220.69C68.0294 220.593 67.9588 220.479 67.9132 220.354C67.8677 220.229 67.8482 220.096 67.8559 219.964L68.93 201.788C68.9443 201.541 69.0514 201.31 69.2298 201.139C69.4081 200.969 69.6444 200.872 69.8911 200.869H70.7109C70.9262 200.869 71.1352 200.942 71.3044 201.075C71.4736 201.208 71.593 201.395 71.6437 201.604L73.8203 210.084C74.4987 212.741 75.0075 214.706 75.4315 217.01H75.5164C75.9121 214.706 76.3502 212.77 77.0145 210.084L79.0922 201.604C79.1478 201.395 79.2706 201.21 79.4417 201.077C79.6127 200.944 79.8226 200.871 80.0391 200.869H80.9296C81.1777 200.872 81.4157 200.968 81.5963 201.138C81.777 201.308 81.8871 201.54 81.9048 201.788L82.9507 219.964C82.9583 220.095 82.9392 220.227 82.8946 220.351C82.8499 220.475 82.7805 220.589 82.6907 220.685C82.6009 220.781 82.4924 220.859 82.3719 220.912C82.2514 220.965 82.1214 220.994 81.9896 220.995H81.7917C81.5403 220.996 81.2984 220.899 81.1167 220.725C80.935 220.551 80.8274 220.314 80.8165 220.063L80.4631 212.331Z" fill="white"/>
<path id="Vector_21" d="M87.1202 200.869H87.4876C87.6151 200.869 87.7412 200.894 87.8587 200.943C87.9763 200.993 88.0828 201.065 88.1723 201.155C88.2617 201.246 88.3322 201.354 88.3797 201.472C88.4271 201.59 88.4506 201.717 88.4487 201.844V218.084C88.4487 218.211 88.474 218.337 88.5232 218.455C88.5724 218.572 88.6445 218.679 88.7352 218.769C88.826 218.858 88.9336 218.928 89.0518 218.976C89.1701 219.023 89.2966 219.047 89.424 219.045H93.1553C93.2827 219.045 93.4088 219.07 93.5263 219.119C93.6439 219.169 93.7505 219.241 93.8399 219.331C93.9293 219.422 93.9998 219.53 94.0473 219.648C94.0947 219.766 94.1182 219.893 94.1163 220.02C94.1182 220.148 94.0947 220.274 94.0473 220.392C93.9998 220.511 93.9293 220.618 93.8399 220.709C93.7505 220.8 93.6439 220.872 93.5263 220.921C93.4088 220.97 93.2827 220.995 93.1553 220.995H87.1202C86.9928 220.995 86.8666 220.97 86.7491 220.921C86.6315 220.872 86.525 220.8 86.4355 220.709C86.3461 220.618 86.2756 220.511 86.2281 220.392C86.1807 220.274 86.1572 220.148 86.1591 220.02V201.844C86.1572 201.717 86.1807 201.59 86.2281 201.472C86.2756 201.354 86.3461 201.246 86.4355 201.155C86.525 201.065 86.6315 200.993 86.7491 200.943C86.8666 200.894 86.9928 200.869 87.1202 200.869V200.869Z" fill="white"/>
<path id="Vector_22" style="mix-blend-mode:color-dodge" d="M116.151 245.39C123.028 245.39 128.603 239.815 128.603 232.938C128.603 226.061 123.028 220.487 116.151 220.487C109.274 220.487 103.699 226.061 103.699 232.938C103.699 239.815 109.274 245.39 116.151 245.39Z" fill="url(#paint3_radial_1_6)"/>
</g>
<g id="SmileCard">
<path id="Vector_23" d="M75.3325 31.9571H294.97C296.095 31.9571 297.173 32.4038 297.968 33.199C298.764 33.9942 299.21 35.0727 299.21 36.1972V41.2005H71.05V36.2396C71.0443 35.6757 71.1512 35.1162 71.3644 34.5941C71.5776 34.072 71.8929 33.5976 72.2917 33.1988C72.6905 32.8 73.1648 32.4848 73.687 32.2715C74.2091 32.0583 74.7685 31.9514 75.3325 31.9571V31.9571Z" fill="url(#paint4_linear_1_6)"/>
<path id="Vector_24" opacity="0.86" d="M71.0499 41.2288H299.309V177.209C299.309 178.559 298.773 179.853 297.819 180.807C296.865 181.761 295.57 182.297 294.221 182.297H76.1521C74.8027 182.297 73.5085 181.761 72.5543 180.807C71.6001 179.853 71.064 178.559 71.064 177.209V41.2288H71.0499Z" fill="#B3B3FF"/>
<path id="Vector_25" d="M289.416 36.593C289.416 36.9116 289.321 37.2232 289.144 37.4881C288.967 37.7531 288.716 37.9596 288.421 38.0816C288.127 38.2035 287.803 38.2354 287.49 38.1732C287.178 38.1111 286.89 37.9576 286.665 37.7323C286.44 37.5069 286.286 37.2199 286.224 36.9073C286.162 36.5948 286.194 36.2708 286.316 35.9764C286.438 35.682 286.644 35.4303 286.909 35.2533C287.174 35.0762 287.486 34.9817 287.804 34.9817C288.232 34.9817 288.642 35.1515 288.944 35.4536C289.246 35.7558 289.416 36.1656 289.416 36.593Z" fill="#EEF8FF"/>
<path id="Vector_26" d="M279.593 36.593C279.593 36.9116 279.498 37.2232 279.321 37.4881C279.144 37.7531 278.893 37.9596 278.598 38.0816C278.304 38.2035 277.98 38.2354 277.667 38.1732C277.355 38.1111 277.068 37.9576 276.842 37.7323C276.617 37.5069 276.463 37.2199 276.401 36.9073C276.339 36.5948 276.371 36.2708 276.493 35.9764C276.615 35.682 276.821 35.4303 277.086 35.2533C277.351 35.0762 277.663 34.9817 277.982 34.9817C278.409 34.9817 278.819 35.1515 279.121 35.4536C279.423 35.7558 279.593 36.1656 279.593 36.593Z" fill="#EEF8FF"/>
<path id="Vector_27" d="M269.742 36.593C269.742 36.9116 269.647 37.2232 269.47 37.4881C269.293 37.7531 269.041 37.9596 268.747 38.0816C268.452 38.2035 268.128 38.2354 267.816 38.1732C267.503 38.1111 267.216 37.9576 266.991 37.7323C266.766 37.5069 266.612 37.2199 266.55 36.9073C266.488 36.5948 266.52 36.2708 266.642 35.9764C266.764 35.682 266.97 35.4303 267.235 35.2533C267.5 35.0762 267.812 34.9817 268.13 34.9817C268.558 34.9817 268.967 35.1515 269.27 35.4536C269.572 35.7558 269.742 36.1656 269.742 36.593Z" fill="#EEF8FF"/>
<path id="Vector_28" d="M210.875 58.7405H94.088C93.7824 58.7405 93.4798 58.6801 93.1977 58.5627C92.9155 58.4453 92.6594 58.2733 92.4439 58.0566C92.2285 57.8399 92.0581 57.5827 91.9424 57.2998C91.8268 57.0169 91.7682 56.714 91.77 56.4084V56.4084C91.77 55.7937 92.0143 55.2041 92.449 54.7694C92.8837 54.3347 93.4732 54.0905 94.088 54.0905H210.875C211.488 54.0942 212.076 54.3396 212.51 54.7735C212.944 55.2074 213.189 55.7948 213.193 56.4084C213.193 57.0245 212.949 57.6155 212.515 58.0525C212.08 58.4894 211.491 58.7368 210.875 58.7405Z" fill="white"/>
<path id="Vector_29" d="M210.875 73.383H94.088C93.7824 73.383 93.4798 73.3226 93.1977 73.2052C92.9155 73.0878 92.6594 72.9158 92.4439 72.6991C92.2285 72.4824 92.0581 72.2252 91.9424 71.9423C91.8268 71.6594 91.7682 71.3565 91.77 71.0509V71.0509C91.77 70.4362 92.0143 69.8466 92.449 69.4119C92.8837 68.9772 93.4732 68.733 94.088 68.733H210.875C211.488 68.7367 212.076 68.9821 212.51 69.416C212.944 69.8499 213.189 70.4373 213.193 71.0509V71.0509C213.193 71.667 212.949 72.258 212.515 72.695C212.08 73.1319 211.491 73.3793 210.875 73.383V73.383Z" fill="white"/>
<path id="Vector_30" d="M147.838 83.3755H94.0879C92.8078 83.3755 91.77 84.4133 91.77 85.6935C91.77 86.9736 92.8078 88.0114 94.0879 88.0114H147.838C149.119 88.0114 150.156 86.9736 150.156 85.6935C150.156 84.4133 149.119 83.3755 147.838 83.3755Z" fill="#002A66"/>
<path id="Vector_31" d="M210.875 146.002H94.0879C93.783 146.004 93.4807 145.945 93.1987 145.829C92.9166 145.714 92.6603 145.543 92.4447 145.327C92.2291 145.112 92.0584 144.855 91.9426 144.573C91.8268 144.291 91.7681 143.989 91.77 143.684V143.684C91.7643 143.377 91.8202 143.071 91.9343 142.786C92.0485 142.501 92.2185 142.241 92.4345 142.022C92.6505 141.804 92.9081 141.631 93.192 141.513C93.476 141.395 93.7806 141.336 94.0879 141.338H210.875C211.489 141.338 212.079 141.582 212.514 142.017C212.948 142.451 213.193 143.041 213.193 143.656V143.656C213.196 143.963 213.139 144.267 213.024 144.551C212.91 144.836 212.739 145.095 212.524 145.313C212.308 145.531 212.051 145.705 211.768 145.823C211.485 145.941 211.181 146.002 210.875 146.002V146.002Z" fill="#002A66"/>
<path id="Vector_32" d="M147.838 160.644H94.1303C93.8195 160.652 93.5103 160.597 93.2213 160.482C92.9324 160.367 92.6698 160.195 92.4493 159.975C92.2287 159.756 92.0548 159.494 91.9381 159.206C91.8214 158.918 91.7642 158.609 91.77 158.298C91.7681 157.993 91.8268 157.691 91.9426 157.409C92.0584 157.127 92.2291 156.871 92.4447 156.655C92.6603 156.439 92.9166 156.269 93.1987 156.153C93.4807 156.037 93.783 155.978 94.0879 155.98H147.796C148.101 155.978 148.403 156.037 148.685 156.153C148.967 156.269 149.224 156.439 149.439 156.655C149.655 156.871 149.825 157.127 149.941 157.409C150.057 157.691 150.116 157.993 150.114 158.298V158.298C150.12 158.602 150.065 158.904 149.954 159.186C149.842 159.469 149.676 159.727 149.464 159.945C149.253 160.163 149 160.337 148.721 160.457C148.442 160.577 148.142 160.641 147.838 160.644V160.644Z" fill="#002A66"/>
<path id="Vector_33" d="M258.321 68.3797C254.435 68.3769 250.636 69.5267 247.403 71.6837C244.17 73.8407 241.65 76.908 240.161 80.4976C238.672 84.0871 238.281 88.0377 239.037 91.8496C239.794 95.6614 241.664 99.1633 244.411 101.912C247.158 104.661 250.658 106.534 254.469 107.293C258.281 108.052 262.232 107.664 265.822 106.177C269.413 104.691 272.482 102.173 274.641 98.9416C276.801 95.7106 277.953 91.9117 277.953 88.0255C277.946 82.8199 275.875 77.8293 272.196 74.147C268.516 70.4648 263.527 68.3909 258.321 68.3797ZM258.321 104.322C255.094 104.324 251.939 103.37 249.255 101.579C246.57 99.7877 244.478 97.2405 243.241 94.2596C242.005 91.2787 241.681 87.9981 242.31 84.8329C242.939 81.6677 244.492 78.7602 246.774 76.4783C249.056 74.1964 251.964 72.6427 255.129 72.0138C258.294 71.3849 261.575 71.7091 264.556 72.9454C267.536 74.1816 270.084 76.2743 271.875 78.9587C273.666 81.6431 274.62 84.7984 274.618 88.0255C274.61 92.3452 272.891 96.4859 269.836 99.5404C266.782 102.595 262.641 104.314 258.321 104.322V104.322Z" fill="#002A66"/>
<path id="Vector_34" d="M266.463 92.4494C264.3 94.6079 261.37 95.8203 258.314 95.8203C255.259 95.8203 252.329 94.6079 250.166 92.4494C249.945 92.2282 249.645 92.104 249.332 92.104C249.02 92.104 248.72 92.2282 248.499 92.4494C248.277 92.6705 248.153 92.9705 248.153 93.2833C248.153 93.596 248.277 93.896 248.499 94.1171C251.105 96.7142 254.635 98.1723 258.314 98.1723C261.994 98.1723 265.524 96.7142 268.13 94.1171C268.351 93.896 268.476 93.596 268.476 93.2833C268.476 92.9705 268.351 92.6705 268.13 92.4494C267.909 92.2282 267.609 92.104 267.296 92.104C266.984 92.104 266.684 92.2282 266.463 92.4494Z" fill="#002A66"/>
<path id="Vector_35" d="M251.255 86.9514C251.643 86.9514 252.023 86.8361 252.346 86.6203C252.669 86.4044 252.921 86.0976 253.07 85.7386C253.218 85.3796 253.257 84.9846 253.181 84.6035C253.106 84.2224 252.919 83.8724 252.644 83.5976C252.369 83.3228 252.019 83.1357 251.638 83.0599C251.257 82.9841 250.862 83.023 250.503 83.1717C250.144 83.3204 249.837 83.5722 249.621 83.8953C249.405 84.2184 249.29 84.5982 249.29 84.9868C249.294 85.5067 249.502 86.0042 249.87 86.3719C250.237 86.7395 250.735 86.9477 251.255 86.9514V86.9514Z" fill="#002A66"/>
<path id="Vector_36" d="M265.388 86.9514C265.777 86.9514 266.157 86.8361 266.48 86.6203C266.803 86.4044 267.055 86.0976 267.203 85.7386C267.352 85.3796 267.391 84.9846 267.315 84.6035C267.239 84.2224 267.052 83.8724 266.777 83.5976C266.503 83.3228 266.153 83.1357 265.772 83.0599C265.39 82.9841 264.995 83.023 264.636 83.1717C264.277 83.3204 263.971 83.5722 263.755 83.8953C263.539 84.2184 263.424 84.5982 263.424 84.9868C263.427 85.5067 263.636 86.0042 264.003 86.3719C264.371 86.7395 264.868 86.9477 265.388 86.9514V86.9514Z" fill="#002A66"/>
<path id="Vector_37" d="M102.314 129.564C102.05 129.571 101.787 129.522 101.543 129.42C101.3 129.317 101.081 129.164 100.9 128.971L92.2647 119.727C91.9282 119.333 91.7434 118.832 91.7434 118.314C91.7434 117.796 91.9282 117.295 92.2647 116.901L101.112 107.417C101.284 107.231 101.493 107.082 101.725 106.98C101.958 106.879 102.209 106.826 102.462 106.826C102.716 106.826 102.967 106.879 103.199 106.98C103.431 107.082 103.64 107.231 103.812 107.417C104.154 107.808 104.342 108.311 104.342 108.83C104.342 109.35 104.154 109.852 103.812 110.244L96.3918 118.201L103.671 125.989C104.013 126.38 104.201 126.882 104.201 127.402C104.201 127.922 104.013 128.424 103.671 128.815C103.511 129.03 103.308 129.208 103.074 129.337C102.84 129.467 102.58 129.544 102.314 129.564Z" fill="url(#paint5_linear_1_6)"/>
<path id="Vector_38" d="M129.973 129.564C129.709 129.573 129.446 129.525 129.202 129.422C128.958 129.32 128.739 129.166 128.56 128.971C128.218 128.579 128.029 128.077 128.029 127.557C128.029 127.038 128.218 126.536 128.56 126.144L135.839 118.356L128.404 110.399C128.062 110.008 127.874 109.506 127.874 108.986C127.874 108.466 128.062 107.964 128.404 107.572C128.578 107.386 128.788 107.237 129.021 107.135C129.255 107.033 129.507 106.981 129.761 106.981C130.016 106.981 130.268 107.033 130.501 107.135C130.735 107.237 130.945 107.386 131.118 107.572L139.895 116.971C140.24 117.361 140.43 117.864 140.43 118.385C140.43 118.905 140.24 119.408 139.895 119.798L131.259 129.042C130.915 129.376 130.454 129.564 129.973 129.564V129.564Z" fill="url(#paint6_linear_1_6)"/>
<path id="Vector_39" d="M111.854 132.109C111.61 132.104 111.37 132.052 111.147 131.953C110.665 131.725 110.288 131.322 110.091 130.826C109.894 130.331 109.893 129.779 110.087 129.282L118.666 106.753C118.746 106.5 118.879 106.268 119.055 106.072C119.232 105.875 119.449 105.718 119.692 105.613C119.934 105.507 120.196 105.454 120.461 105.458C120.725 105.462 120.986 105.523 121.225 105.636C121.703 105.864 122.077 106.265 122.272 106.758C122.466 107.252 122.465 107.8 122.271 108.293L113.635 130.837C113.503 131.205 113.261 131.523 112.943 131.751C112.625 131.978 112.245 132.103 111.854 132.109V132.109Z" fill="url(#paint7_linear_1_6)"/>
<path id="Vector_40" d="M288.652 123.84H227.991C226.535 123.84 225.139 123.263 224.108 122.235C223.077 121.207 222.496 119.812 222.493 118.356V57.6946C222.493 56.2364 223.072 54.838 224.103 53.8069C225.134 52.7758 226.532 52.1966 227.991 52.1966H288.652C290.108 52.2003 291.503 52.7812 292.531 53.8119C293.559 54.8426 294.136 56.2389 294.136 57.6946V118.356C294.136 119.811 293.559 121.206 292.53 122.234C291.502 123.263 290.107 123.84 288.652 123.84V123.84ZM227.991 55.5321C227.705 55.5284 227.421 55.5816 227.156 55.6888C226.892 55.796 226.651 55.9549 226.448 56.1563C226.245 56.3576 226.085 56.5974 225.976 56.8615C225.867 57.1257 225.812 57.4089 225.814 57.6946V118.356C225.814 118.64 225.87 118.92 225.979 119.182C226.088 119.443 226.247 119.681 226.448 119.881C226.649 120.08 226.888 120.238 227.15 120.345C227.412 120.452 227.693 120.507 227.976 120.505H288.638C288.924 120.51 289.208 120.459 289.473 120.354C289.739 120.248 289.981 120.091 290.185 119.891C290.389 119.691 290.551 119.452 290.662 119.189C290.772 118.925 290.829 118.642 290.829 118.356V57.6946C290.831 57.4113 290.777 57.1304 290.67 56.8681C290.562 56.6059 290.404 56.3674 290.205 56.1664C290.005 55.9654 289.768 55.8059 289.506 55.697C289.245 55.5882 288.964 55.5321 288.681 55.5321H227.991Z" fill="#002A66"/>
<path id="Vector_41" d="M200.373 108.59V106.71C200.37 106.368 200.231 106.041 199.988 105.8C199.744 105.559 199.416 105.424 199.073 105.424H195.992C195.749 104.425 195.348 103.471 194.805 102.597L196.967 100.35C197.087 100.231 197.183 100.089 197.248 99.9321C197.313 99.7757 197.346 99.6079 197.346 99.4385C197.346 99.2691 197.313 99.1013 197.248 98.9449C197.183 98.7884 197.087 98.6464 196.967 98.5269L195.639 97.1983C195.395 96.9549 195.064 96.8182 194.72 96.8182C194.375 96.8182 194.045 96.9549 193.801 97.1983L191.625 99.3749C190.751 98.8317 189.797 98.431 188.798 98.1877V95.1207C188.798 94.7782 188.663 94.4496 188.422 94.2062C188.181 93.9627 187.854 93.8241 187.512 93.8203H185.618C185.275 93.8241 184.948 93.9627 184.707 94.2062C184.467 94.4496 184.332 94.7782 184.332 95.1207V98.2018C183.332 98.4451 182.378 98.8459 181.505 99.389L179.328 97.2124C179.085 96.969 178.754 96.8323 178.41 96.8323C178.065 96.8323 177.735 96.969 177.491 97.2124L176.162 98.541C176.042 98.6605 175.947 98.8026 175.882 98.959C175.817 99.1155 175.783 99.2832 175.783 99.4526C175.783 99.622 175.817 99.7898 175.882 99.9462C175.947 100.103 176.042 100.245 176.162 100.364L178.339 102.555C177.796 103.428 177.395 104.382 177.152 105.382H174.071C173.729 105.382 173.402 105.517 173.161 105.758C172.92 106 172.784 106.327 172.784 106.668V108.548C172.784 108.89 172.919 109.219 173.16 109.462C173.401 109.706 173.728 109.844 174.071 109.848H177.152C177.395 110.847 177.796 111.801 178.339 112.675L176.162 114.851C176.042 114.971 175.947 115.113 175.882 115.269C175.817 115.426 175.783 115.594 175.783 115.763C175.783 115.932 175.817 116.1 175.882 116.257C175.947 116.413 176.042 116.555 176.162 116.675L177.491 118.088C177.735 118.331 178.065 118.468 178.41 118.468C178.754 118.468 179.085 118.331 179.328 118.088L181.42 115.897C182.29 116.451 183.245 116.857 184.247 117.099V120.137C184.247 120.478 184.382 120.806 184.624 121.047C184.865 121.288 185.192 121.423 185.533 121.423H187.427C187.768 121.423 188.095 121.288 188.336 121.047C188.578 120.806 188.713 120.478 188.713 120.137V117.113C189.715 116.871 190.67 116.465 191.54 115.911L193.716 118.102C193.96 118.345 194.291 118.482 194.635 118.482C194.98 118.482 195.31 118.345 195.554 118.102L196.882 116.689C197.002 116.569 197.098 116.427 197.163 116.271C197.228 116.114 197.261 115.946 197.261 115.777C197.261 115.608 197.228 115.44 197.163 115.283C197.098 115.127 197.002 114.985 196.882 114.865L194.706 112.689C195.249 111.816 195.65 110.861 195.893 109.862H198.974C199.151 109.876 199.328 109.853 199.496 109.795C199.663 109.738 199.817 109.647 199.948 109.528C200.079 109.409 200.184 109.264 200.257 109.103C200.331 108.942 200.37 108.767 200.373 108.59V108.59ZM187.441 112.915C186.326 113.106 185.18 112.937 184.168 112.433C183.155 111.929 182.329 111.116 181.81 110.111C181.29 109.107 181.103 107.963 181.277 106.846C181.45 105.728 181.975 104.695 182.774 103.895C183.574 103.096 184.607 102.571 185.725 102.398C186.843 102.224 187.986 102.411 188.991 102.93C189.995 103.45 190.808 104.276 191.312 105.288C191.816 106.301 191.985 107.447 191.794 108.562C191.605 109.65 191.084 110.653 190.302 111.432C189.52 112.212 188.516 112.73 187.427 112.915H187.441Z" fill="url(#paint8_linear_1_6)"/>
</g>
<g id="Boy">
<g id="BoyShoes">
<g id="BoyLeftShoe">
<path id="Vector_42" d="M410.231 445.212L445.226 443.248C445.226 443.248 459.162 443.078 447.021 435.941C444.99 434.737 443.07 433.356 441.282 431.814C437.119 428.158 433.681 423.752 431.149 418.825L424.265 420.634L412.252 423.8H411.941C411.079 430.923 410.231 445.212 410.231 445.212Z" fill="url(#paint9_linear_1_6)"/>
<path id="Vector_43" d="M456.844 448.534C456.844 448.534 456.137 436.944 447.021 435.814C437.905 434.683 436.873 443.601 436.873 443.601L410.231 442.103L409.524 448.477L456.844 448.534Z" fill="#010D19"/>
<path id="Vector_44" d="M424.265 420.563C425.34 424.026 428.336 431.87 433.975 434.259C436.031 432.573 438.624 431.68 441.282 431.743C437.119 428.088 433.681 423.681 431.149 418.754L424.265 420.563Z" fill="#010D19"/>
</g>
<g id="BoyRightShoe">
<path id="Vector_45" d="M367.151 445.212L332.142 443.248C332.142 443.248 318.22 443.078 330.361 435.941C332.387 434.737 334.303 433.356 336.085 431.814C340.252 428.158 343.694 423.752 346.233 418.825L353.102 420.634L365.116 423.8H365.441C366.275 430.923 367.151 445.212 367.151 445.212Z" fill="url(#paint10_linear_1_6)"/>
<path id="Vector_46" d="M320.51 448.534C320.51 448.534 321.217 436.944 330.333 435.814C339.449 434.683 340.481 443.601 340.481 443.601L367.151 442.16L367.858 448.534H320.51Z" fill="#010D19"/>
<path id="Vector_47" d="M353.017 420.563C351.957 424.026 348.961 431.87 343.308 434.259C341.253 432.571 338.659 431.678 336 431.743C340.167 428.087 343.609 423.681 346.148 418.754L353.017 420.563Z" fill="#010D19"/>
</g>
</g>
<g id="BoyPant">
<path id="Vector_48" d="M432.251 416.125L408.817 418.627C408.817 418.627 399.616 345.132 391.32 314.801C388.649 321.062 383.264 343.676 378.218 366.205C372.352 392.522 366.982 418.726 366.982 418.726C366.982 418.726 353.54 420.238 346.035 414.161C348.353 372.24 364.579 288.583 366.713 276.343C366.713 276.442 366.713 276.541 366.713 276.64C366.832 277.13 367.007 277.604 367.236 278.053C367.359 278.267 367.506 278.466 367.674 278.647V278.647C369.61 280.781 375.433 283.113 383.574 283.367C392.337 283.65 403.772 281.516 415.955 274.096C416.27 272.834 416.323 271.52 416.11 270.237C416.52 270.633 417.298 275.566 418.301 283.382C422.979 319.253 432.251 416.125 432.251 416.125Z" fill="url(#paint11_linear_1_6)"/>
<path id="Vector_49" d="M430.984 414.996L411.043 416.688C409.207 416.844 407.845 418.458 408.001 420.294L408.04 420.759C408.196 422.594 409.811 423.956 411.646 423.8L431.588 422.108C433.423 421.952 434.785 420.338 434.629 418.503L434.59 418.038C434.434 416.202 432.82 414.84 430.984 414.996Z" fill="#A2A5AA"/>
<path id="Vector_50" d="M369.455 421.185C369.255 421.947 368.808 422.621 368.184 423.102C367.56 423.583 366.794 423.843 366.006 423.842C365.809 423.864 365.61 423.864 365.413 423.842H365.088L346.205 418.867L345.23 418.599C344.356 418.408 343.585 417.897 343.069 417.166C342.553 416.436 342.33 415.538 342.444 414.651C342.557 413.764 342.999 412.951 343.683 412.374C344.366 411.796 345.241 411.496 346.134 411.532C346.445 411.533 346.754 411.576 347.053 411.659L366.84 416.889C367.754 417.116 368.541 417.695 369.031 418.499C369.52 419.304 369.673 420.269 369.455 421.185V421.185Z" fill="#A2A5AA"/>
<g id="Vector_51" style="mix-blend-mode:overlay" opacity="0.25">
<path d="M407.559 283.382C407.559 283.382 407.022 291.141 414.796 292.738" stroke="white" stroke-width="1.66778" stroke-linecap="round" stroke-linejoin="round"/>
</g>
<g id="Vector_52" style="mix-blend-mode:overlay" opacity="0.25">
<path d="M411.164 295.862L426.4 411.461" stroke="white" stroke-width="1.66778" stroke-linecap="round" stroke-linejoin="round"/>
</g>
<g id="Vector_53" style="mix-blend-mode:overlay" opacity="0.25">
<path d="M387.617 313.373L361.78 411.461" stroke="white" stroke-width="1.66778" stroke-linecap="round" stroke-linejoin="round"/>
</g>
<g id="Vector_54" style="mix-blend-mode:overlay" opacity="0.25">
<path d="M391.32 314.801C388.648 321.062 383.263 343.676 378.218 366.205C377.926 354.879 378.398 343.547 379.631 332.284C382.825 308.638 391.32 314.801 391.32 314.801Z" fill="black"/>
</g>
<g id="Vector_55" style="mix-blend-mode:overlay" opacity="0.25">
<path d="M418.386 283.367C384.069 300.497 368.437 279.594 367.759 278.633C369.695 280.767 375.518 283.099 383.659 283.353C392.422 283.636 403.856 281.502 416.04 274.082C416.355 272.82 416.408 271.506 416.195 270.223C416.619 270.619 417.382 275.608 418.386 283.367Z" fill="black"/>
</g>
</g>
<g id="BoyRightHand">
<path id="Vector_56" d="M366.445 233.546L364.805 239.949L364.678 240.387L364.296 241.899C361.897 241.962 359.505 241.603 357.23 240.839C355.024 240.122 352.934 239.089 351.025 237.772C350.488 237.39 349.951 236.995 349.414 236.557C350.163 227.907 352.975 212.671 353.894 207.823C354.078 206.848 354.191 206.296 354.191 206.296L366.445 233.546Z" fill="url(#paint12_linear_1_6)"/>
<path id="Vector_57" d="M366.982 241.051C366.982 241.051 365.229 248.782 362.996 255.934C361.399 260.98 359.576 265.743 357.936 267.241C353.979 270.986 343.802 277.134 343.802 277.134L337.923 264.951L346.629 257.319L350.049 242.069L351.039 237.716C354.916 240.447 359.554 241.891 364.296 241.843L364.678 240.316L366.982 241.051Z" fill="url(#paint13_linear_1_6)"/>
<g id="Vector_58" style="mix-blend-mode:overlay" opacity="0.25">
<path d="M365.639 246.549C364.946 249.277 364.014 252.655 362.996 255.934C358.445 253.107 352.975 246.125 350.049 242.139L351.039 237.786C354.916 240.518 359.554 241.962 364.296 241.913C364.918 243.878 365.385 245.475 365.639 246.549Z" fill="black"/>
</g>
<g id="Vector_59" style="mix-blend-mode:overlay" opacity="0.25">
<path d="M366.106 256.174C366.244 253.03 366.102 249.88 365.681 246.761C365.455 245.701 364.961 244.019 364.268 241.913C361.869 241.976 359.477 241.617 357.201 240.853C357.851 238.535 357.781 233.998 357.894 228.331C357.954 225.727 357.722 223.124 357.201 220.571C359.915 226.691 363.505 233.645 364.763 239.949C366.148 246.733 366.614 252.782 366.106 256.174Z" fill="black"/>
</g>
</g>
<g id="BoyBody">
<path id="Vector_60" d="M416.04 274.082C403.856 281.502 392.422 283.636 383.659 283.353C375.476 283.099 369.639 280.739 367.731 278.604C367.562 278.424 367.415 278.225 367.293 278.011C367.064 277.562 366.888 277.087 366.77 276.597C366.77 276.498 366.77 276.4 366.77 276.301C366.136 272.315 365.899 268.277 366.063 264.245C366.063 263.51 366.063 262.831 366.063 262.04C366.063 260.047 366.063 258.04 366.148 256.16C366.148 253.673 366.148 251.369 366.049 249.531C365.985 248.796 365.882 248.065 365.738 247.341C365.738 247.114 365.667 246.902 365.625 246.705V246.493C365.37 245.418 364.904 243.821 364.211 241.857C363.646 240.062 362.925 237.942 362.176 235.666C361.95 235.002 361.724 234.253 361.484 233.617C360.805 231.539 360.07 229.377 359.335 227.144C358.77 225.419 358.205 223.695 357.667 221.985C357.455 221.292 357.229 220.571 357.017 219.935C355.756 216.067 354.709 212.132 353.88 208.148C353.88 208.021 353.88 207.908 353.88 207.795C353.88 207.469 353.795 207.187 353.752 206.904L354.176 206.268L354.473 205.83C357.126 202.208 360.271 198.974 363.816 196.219C364.734 195.484 365.625 194.806 366.445 194.212C367.264 193.618 367.745 193.279 368.31 192.883L372.07 190.735C379.992 189.425 388.076 189.425 395.998 190.735C398.096 191.065 400.169 191.537 402.203 192.149L402.401 194.58L402.57 196.742L403.56 209.038L403.743 211.201L403.814 212.148C403.913 212.572 405.001 216.882 406.471 223.031C406.641 223.709 406.81 224.444 406.98 225.122C407.842 228.698 408.789 232.769 409.807 236.995L410.273 239.087C411.178 243.044 412.068 247.114 412.874 251.001C413.015 251.722 413.156 252.415 413.312 253.107C414.202 257.545 414.98 261.7 415.503 265.121C415.616 265.87 415.715 266.534 415.814 267.255C415.955 268.343 416.068 269.333 416.139 270.209C416.372 271.493 416.338 272.811 416.04 274.082Z" fill="url(#paint14_linear_1_6)"/>
<path id="Vector_61" opacity="0.25" d="M402.655 196.714L353.965 208.19C353.965 208.063 353.965 207.95 353.965 207.837C353.965 207.512 353.88 207.229 353.837 206.946L354.261 206.31L354.558 205.872L402.542 194.565L402.655 196.714Z" fill="black"/>
<path id="Vector_62" opacity="0.25" d="M403.899 211.172L357.823 222.027C357.611 221.335 357.385 220.614 357.173 219.978L403.715 209.01L403.899 211.172Z" fill="black"/>
<path id="Vector_63" opacity="0.25" d="M407.079 225.137L362.261 235.709C362.035 235.044 361.809 234.295 361.568 233.659L406.57 223.045C406.726 223.723 406.909 224.43 407.079 225.137Z" fill="black"/>
<path id="Vector_64" opacity="0.25" d="M410.33 239.101L366.006 249.545C365.958 248.806 365.868 248.07 365.738 247.341L409.807 236.952L410.33 239.101Z" fill="black"/>
<path id="Vector_65" opacity="0.25" d="M413.369 253.121L366.007 264.301C366.007 263.566 366.007 262.888 366.007 262.096L412.916 251.03C413.072 251.736 413.213 252.429 413.369 253.121Z" fill="black"/>
<path id="Vector_66" opacity="0.25" d="M415.87 267.269L367.731 278.576C367.562 278.396 367.415 278.197 367.293 277.982C367.064 277.533 366.888 277.059 366.77 276.569L415.559 265.064C415.672 265.884 415.771 266.591 415.87 267.269Z" fill="black"/>
<g id="Vector_67" style="mix-blend-mode:overlay" opacity="0.25">
<path d="M416.04 274.082C403.856 281.502 392.422 283.636 383.659 283.353C394.062 279 391.009 268.499 381.412 266.577C391.079 259.439 398.853 253.107 397.284 229.984C396.815 222.769 397.118 215.525 398.189 208.374L403.913 212.162C404.309 213.773 418.329 269.502 416.04 274.082Z" fill="black"/>
</g>
</g>
<g id="BoyHead">
<g id="Vector_68" style="mix-blend-mode:overlay" opacity="0.25">
<path d="M396.083 190.707C393.807 197.053 388.818 205.915 378.6 206.254C366.388 206.72 364.197 199.583 363.844 196.205C364.763 195.47 365.653 194.792 366.473 194.198C367.293 193.604 367.773 193.265 368.338 192.869L372.098 190.721C380.02 189.411 388.104 189.411 396.026 190.721L396.083 190.707Z" fill="black"/>
</g>
<path id="Vector_69" d="M378.6 199.795C378.144 200.272 377.579 200.633 376.954 200.844C376.329 201.056 375.662 201.113 375.01 201.01C373.941 200.791 372.93 200.351 372.042 199.718C371.154 199.085 370.407 198.274 369.851 197.336C369.461 196.747 369.139 196.116 368.89 195.456V195.456C368.21 195.71 367.467 195.74 366.77 195.541H366.544H366.473C364.732 195.112 363.064 194.426 361.526 193.505C358.463 191.67 355.831 189.197 353.809 186.255C353.385 185.675 352.989 185.082 352.622 184.502C352.254 183.923 351.83 183.216 351.491 182.622C358.827 181.887 363.646 176.672 365.809 170.467C365.809 170.467 369.823 177.068 370.713 177.068C371.603 177.068 372.324 170.821 374.953 170.736C375.361 170.711 375.766 170.815 376.112 171.033C377.681 172.022 377.667 175.414 376.381 178.948C375.575 181.181 378.882 183.046 379.603 183.188C379.603 183.188 379.702 183.188 379.787 183.089C379.986 185.38 380.307 187.658 380.748 189.915C380.888 190.692 381.068 191.461 381.285 192.219C381.766 193.731 380.762 197.731 378.6 199.795Z" fill="url(#paint15_linear_1_6)"/>
<path id="Vector_70" d="M359.42 175.004C357.676 178.311 354.824 180.897 351.364 182.311C351.124 181.887 350.912 181.492 350.728 181.11C353.913 179.519 356.843 177.461 359.42 175.004V175.004Z" fill="#FFB7A9"/>
<path id="Vector_71" d="M385.129 168.559C383.999 175.626 380.72 182.114 379.801 183.004C379.716 183.089 379.66 183.117 379.617 183.103C378.896 182.919 375.589 181.054 376.395 178.863C377.935 174.623 377.653 170.566 374.981 170.651C372.31 170.736 371.589 176.983 370.741 176.983C369.893 176.983 365.837 170.383 365.837 170.383C363.674 176.587 358.855 181.803 351.519 182.538H350.742L351.42 182.297C354.881 180.883 357.733 178.296 359.477 174.99C356.899 177.447 353.969 179.505 350.784 181.096C348.688 182.203 346.321 182.693 343.958 182.509C343.782 182.295 343.621 182.068 343.477 181.831C337.046 172.248 341.668 152.235 350.7 148.405C348.838 147.748 347.096 146.794 345.541 145.578C349.555 146.454 359.802 142.907 363.363 143.373C364.357 143.478 365.308 143.834 366.126 144.408C366.945 144.981 367.604 145.754 368.042 146.652C368.042 146.652 372.522 142.624 377.61 144.32C375.108 144.221 373.243 147.26 373.243 147.26C376.14 148.038 378.773 149.585 380.863 151.737C382.953 153.889 384.422 156.567 385.115 159.486C385.699 162.482 385.703 165.562 385.129 168.559V168.559Z" fill="url(#paint16_linear_1_6)"/>
<g id="Vector_72" style="mix-blend-mode:overlay" opacity="0.25">
<path d="M378.599 199.795C378.144 200.272 377.579 200.633 376.954 200.844C376.329 201.056 375.662 201.113 375.009 201.01C373.941 200.791 372.93 200.351 372.042 199.718C371.154 199.085 370.407 198.274 369.851 197.336C369.461 196.747 369.139 196.116 368.89 195.456C370.656 195.046 373.003 193.604 374.812 189.11C376.494 190.311 376.211 197.873 378.599 199.795Z" fill="black"/>
</g>
<g id="Vector_73" style="mix-blend-mode:overlay" opacity="0.25">
<path d="M351.364 182.326C351.124 181.902 350.912 181.506 350.728 181.124C353.913 179.533 356.843 177.475 359.42 175.018C357.676 178.325 354.824 180.912 351.364 182.326V182.326Z" fill="black"/>
</g>
<g id="Vector_74" style="mix-blend-mode:overlay" opacity="0.25">
<path d="M376.126 170.906C371.886 172.319 373.639 179.145 371.349 179.485C368.522 179.937 367.109 175.697 367.109 175.697C365.355 178.529 362.85 180.818 359.872 182.311C357.613 183.503 355.128 184.206 352.579 184.375C352.155 183.725 351.788 183.089 351.449 182.495C358.784 181.76 363.604 176.545 365.766 170.34C365.766 170.34 369.78 176.941 370.671 176.941C371.561 176.941 372.282 170.694 374.911 170.609C375.337 170.572 375.765 170.676 376.126 170.906V170.906Z" fill="black"/>
</g>
<g id="Vector_75" style="mix-blend-mode:overlay" opacity="0.25">
<path d="M374.812 189.11C373.003 193.604 370.656 195.046 368.89 195.456C368.129 195.713 367.304 195.713 366.544 195.456H366.473C364.732 195.027 363.064 194.341 361.526 193.421C358.463 191.586 355.831 189.113 353.809 186.17C354.658 186.151 355.48 186.465 356.099 187.046C358.304 188.799 360.339 192.813 365.342 193.887C370.345 194.961 373.526 190.99 374.812 189.11Z" fill="white"/>
</g>
<g id="Vector_76" style="mix-blend-mode:overlay" opacity="0.25">
<path d="M374.995 173.506C374.995 173.506 374.133 176.008 374.529 176.813C374.925 177.619 377.638 175.16 374.995 173.506Z" fill="black"/>
</g>
<g id="Vector_77" style="mix-blend-mode:overlay" opacity="0.25">
<path d="M385.129 168.559C383.999 175.626 380.72 182.114 379.801 183.004C379.716 183.089 379.66 183.117 379.617 183.103C378.896 182.919 375.589 181.054 376.395 178.863C377.935 174.623 377.653 170.566 374.981 170.651C372.31 170.736 371.589 176.983 370.741 176.983C369.893 176.983 365.837 170.383 365.837 170.383C363.674 176.587 358.855 181.803 351.519 182.538H350.742L351.42 182.297C354.881 180.883 357.733 178.296 359.477 174.99C356.899 177.447 353.97 179.505 350.784 181.096C348.688 182.203 346.321 182.693 343.958 182.509C343.782 182.295 343.621 182.068 343.477 181.831C348.452 178.509 360.819 169.266 360.607 160.051C362.088 163.278 362.734 166.826 362.487 170.368C363.785 166.806 364.417 163.036 364.353 159.245C366.452 162.109 368.009 165.333 368.946 168.757C369.192 167.186 369.953 165.74 371.109 164.648C372.265 163.556 373.752 162.878 375.335 162.722C381.228 161.789 381.469 170.368 381.469 170.368C381.469 170.368 383.504 167.287 381.228 161.789C382.698 162.666 384.112 165.365 385.129 168.559Z" fill="black"/>
</g>
<path id="Vector_78" d="M377.045 203.993C369.78 204.925 367.476 198.056 366.77 195.512C367.467 195.711 368.21 195.682 368.89 195.428C369.139 196.088 369.461 196.719 369.851 197.307C370.407 198.245 371.154 199.057 372.042 199.69C372.93 200.322 373.941 200.763 375.009 200.982C375.662 201.085 376.329 201.028 376.954 200.816C377.579 200.604 378.144 200.244 378.599 199.767C380.762 197.703 381.765 193.703 381.313 192.134C381.09 191.367 380.906 190.588 380.762 189.802L383.942 189.718C384.225 195.428 383.363 203.187 377.045 203.993Z" fill="#0049B2"/>
</g>
<g id="BoyLeftHand">
<path id="Vector_79" d="M416.294 219.978C416.265 220.184 416.203 220.385 416.11 220.571C415.102 222.035 413.687 223.17 412.04 223.836C408.773 225.412 405.378 226.707 401.892 227.709L400.86 228.02C400.86 228.02 395.079 216.529 394.048 206.522C393.383 200.162 394.655 194.396 400.535 192.53C401.108 192.351 401.694 192.214 402.288 192.12C402.288 192.12 410.386 196.629 416.026 218.974C416.11 219.271 416.209 219.624 416.294 219.978Z" fill="url(#paint17_linear_1_6)"/>
<path id="Vector_80" d="M421.566 250.167C419.262 254.634 382.288 272.668 382.288 272.668C382.288 272.668 379.462 278.025 374.26 279.099C369.059 280.173 365.144 277.304 362.12 277.134C359.095 276.965 354.798 280.173 354.798 280.173C354.462 280.183 354.129 280.116 353.823 279.975C353.272 279.693 352.862 279 353.823 277.304C357.823 270.167 372.508 268.923 373.61 268.386C374.119 268.131 381.539 262.195 389.157 256.005C397.722 249.121 406.584 241.871 406.584 241.871L403.051 231.115L401.906 227.652C405.114 226.705 414.697 223.624 416.124 220.515C416.492 221.759 417.029 223.582 417.623 225.702C419.898 234.055 423.135 247.157 421.566 250.167Z" fill="url(#paint18_linear_1_6)"/>
<g id="Vector_81" style="mix-blend-mode:overlay" opacity="0.25">
<path d="M417.609 225.758C412.845 230.225 406.302 231.059 403.037 231.172L401.892 227.709C405.1 226.762 414.683 223.681 416.11 220.571C416.478 221.815 417.015 223.638 417.609 225.758Z" fill="black"/>
</g>
<g id="Vector_82" style="mix-blend-mode:overlay" opacity="0.25">
<path d="M416.294 219.978C416.265 220.184 416.203 220.385 416.11 220.571C415.102 222.035 413.687 223.17 412.04 223.836C412.021 218.539 411.25 213.271 409.75 208.19C407.851 202.363 404.707 197.02 400.535 192.53C401.108 192.351 401.694 192.214 402.288 192.12C402.288 192.12 410.386 196.629 416.026 218.974C416.11 219.271 416.209 219.624 416.294 219.978Z" fill="black"/>
</g>
<g id="Vector_83" style="mix-blend-mode:overlay" opacity="0.25">
<path d="M389.143 255.99C387.73 261.517 376.013 270.364 373.935 270.223C371.603 270.068 360.678 272.852 357.244 274.859C356.326 275.397 355.542 276.136 354.95 277.019C354.358 277.902 353.973 278.908 353.823 279.961C353.272 279.679 352.862 278.986 353.823 277.29C357.823 270.152 372.508 268.909 373.61 268.372C374.048 268.117 381.469 262.181 389.143 255.99Z" fill="white"/>
</g>
</g>
</g>
<g id="Table">
<path id="Vector_84" d="M169.491 297.784L166.763 295.862L164.036 293.982C163.626 294.575 153.775 308.737 143.824 334.97C134.68 358.997 123.783 398.317 123.783 448.534H130.454C130.454 354.587 169.095 298.335 169.491 297.784Z" fill="url(#paint19_linear_1_6)"/>
<path id="Vector_85" d="M229.136 297.784L226.408 295.862L223.68 293.982C223.256 294.575 213.405 308.737 203.469 334.97C194.324 358.997 183.413 398.317 183.413 448.534H190.084C190.098 354.587 228.74 298.335 229.136 297.784Z" fill="url(#paint20_linear_1_6)"/>
<path id="Vector_86" d="M420.336 297.784L423.064 295.862L425.792 293.954C426.202 294.547 436.053 308.709 446.003 334.941C455.133 358.997 466.087 398.317 466.087 448.534H459.43C459.374 354.587 420.718 298.335 420.336 297.784Z" fill="url(#paint21_linear_1_6)"/>
<path id="Vector_87" d="M360.692 297.784L363.42 295.862L366.148 293.954C366.557 294.547 376.409 308.709 386.359 334.941C395.503 359.053 406.4 398.331 406.4 448.548H399.729C399.729 354.587 361.088 298.335 360.692 297.784Z" fill="url(#paint22_linear_1_6)"/>
<path id="Vector_88" d="M426.4 294.491C426.4 295.66 425.935 296.782 425.108 297.609C424.281 298.436 423.159 298.9 421.99 298.9H122.963C121.794 298.9 120.672 298.436 119.845 297.609C119.018 296.782 118.553 295.66 118.553 294.491C118.553 293.321 119.018 292.199 119.845 291.372C120.672 290.546 121.794 290.081 122.963 290.081H421.99C423.159 290.081 424.281 290.546 425.108 291.372C425.935 292.199 426.4 293.321 426.4 294.491V294.491Z" fill="#9CACF2"/>
<path id="Vector_89" d="M479.274 294.491C479.276 295.07 479.163 295.645 478.942 296.18C478.721 296.716 478.396 297.203 477.986 297.613C477.576 298.023 477.09 298.348 476.554 298.569C476.018 298.789 475.444 298.902 474.864 298.9H421.99C423.159 298.9 424.281 298.436 425.108 297.609C425.935 296.782 426.4 295.66 426.4 294.491C426.4 293.321 425.935 292.199 425.108 291.373C424.281 290.546 423.159 290.081 421.99 290.081H474.864C476.033 290.081 477.155 290.546 477.982 291.373C478.809 292.199 479.274 293.321 479.274 294.491V294.491Z" fill="#C7CFFF"/>
</g>
<g id="Desktop">
<path id="Vector_90" d="M226.408 160.871V257.658H156.644C153.99 257.658 151.445 256.604 149.568 254.727C147.691 252.851 146.637 250.306 146.637 247.652V170.877C146.637 168.223 147.691 165.678 149.568 163.802C151.445 161.925 153.99 160.871 156.644 160.871H226.408Z" fill="#EEF8FF"/>
<path id="Vector_91" d="M226.408 257.658V160.871C223.754 160.871 221.209 161.925 219.332 163.801C217.455 165.678 216.401 168.223 216.401 170.877V247.652C216.401 250.305 217.455 252.851 219.332 254.727C221.209 256.604 223.754 257.658 226.408 257.658V257.658Z" fill="#C7CFFF"/>
<g id="Vector_92" style="mix-blend-mode:overlay" opacity="0.25">
<path d="M191.681 257.658H167.202L173.265 220.119C173.265 220.119 176.092 214.55 182.438 218.155C187.554 221.094 185.151 246.408 191.681 257.658Z" fill="black"/>
</g>
<path id="Vector_93" d="M157.124 278.604L173.265 220.105C173.397 219.624 173.662 219.19 174.03 218.854C174.398 218.517 174.853 218.291 175.344 218.203C175.835 218.114 176.341 218.166 176.803 218.352C177.265 218.539 177.666 218.853 177.957 219.257C181.507 224.453 183.049 230.761 182.296 237.009C180.954 251.764 172.403 279.961 172.403 279.961L157.124 278.604Z" fill="#9CACF2"/>
<path id="Vector_94" d="M185.816 277.021H153.167C151.443 277.021 149.789 277.706 148.57 278.926C147.35 280.145 146.665 281.799 146.665 283.523C146.665 285.247 147.35 286.901 148.57 288.12C149.789 289.339 151.443 290.024 153.167 290.024H185.816C186.671 290.026 187.518 289.859 188.308 289.534C189.099 289.208 189.817 288.729 190.422 288.125C191.027 287.521 191.508 286.804 191.835 286.014C192.163 285.224 192.331 284.378 192.331 283.523V283.523C192.331 282.668 192.163 281.821 191.835 281.032C191.508 280.242 191.027 279.525 190.422 278.921C189.817 278.317 189.099 277.838 188.308 277.512C187.518 277.186 186.671 277.02 185.816 277.021V277.021Z" fill="#7189E2"/>
<path id="Vector_95" d="M182.438 200.869C182.438 205.505 179.993 209.264 176.982 209.264C173.972 209.264 171.541 205.505 171.541 200.869C171.541 196.233 173.972 192.474 176.982 192.474C179.993 192.474 182.438 196.233 182.438 200.869Z" fill="url(#paint23_linear_1_6)"/>
</g>
<g id="Laptop">
<path id="Vector_96" d="M386.203 285.516L344.085 283.353V290.081H386.203V285.516Z" fill="#9CACF2"/>
<path id="Vector_97" d="M353.018 290.081H271.805C271.344 290.079 270.897 289.924 270.533 289.64C270.17 289.356 269.911 288.959 269.798 288.512L256.993 235.737C256.921 235.434 256.918 235.118 256.985 234.813C257.052 234.509 257.187 234.223 257.38 233.978C257.573 233.733 257.819 233.536 258.1 233.399C258.38 233.263 258.688 233.193 259 233.193H340.212C340.674 233.194 341.121 233.349 341.485 233.634C341.848 233.918 342.106 234.314 342.219 234.762L354.94 287.537C355.014 287.834 355.02 288.143 354.959 288.443C354.898 288.742 354.771 289.024 354.586 289.268C354.402 289.512 354.166 289.712 353.894 289.852C353.623 289.993 353.323 290.071 353.018 290.081V290.081Z" fill="#C7CFFF"/>
<path id="Vector_98" d="M350.389 287.608H269.176C268.713 287.608 268.262 287.451 267.898 287.164C267.534 286.877 267.277 286.476 267.169 286.025L254.364 233.207C254.294 232.903 254.294 232.587 254.362 232.282C254.431 231.978 254.568 231.693 254.762 231.448C254.956 231.204 255.203 231.006 255.484 230.87C255.765 230.734 256.073 230.663 256.385 230.663H337.584C338.047 230.663 338.497 230.819 338.862 231.106C339.226 231.393 339.482 231.795 339.59 232.246L352.381 285.007C352.464 285.313 352.475 285.634 352.413 285.944C352.352 286.255 352.22 286.548 352.027 286.799C351.834 287.051 351.586 287.254 351.302 287.395C351.018 287.535 350.705 287.608 350.389 287.608V287.608Z" fill="#EEF8FF"/>
<path id="Vector_99" d="M306.376 260.061C307.436 262.888 306.376 265.813 304.129 266.704C301.882 267.594 299.083 266.054 298.009 263.269C296.935 260.485 298.009 257.517 300.27 256.626C302.532 255.736 305.33 257.234 306.376 260.061Z" fill="url(#paint24_linear_1_6)"/>
</g>
<g id="FavCard">
<path id="Vector_100" d="M487.815 213.451C527.039 196.543 546.612 154.478 531.532 119.497C516.453 84.5167 472.431 69.8666 433.207 86.7755C393.983 103.684 374.41 145.749 389.489 180.73C404.569 215.71 448.59 230.36 487.815 213.451Z" fill="url(#paint25_radial_1_6)"/>
<path id="Vector_101" d="M500.63 103.785H402.062C398.783 103.785 396.125 106.442 396.125 109.721V171.033C396.125 174.311 398.783 176.969 402.062 176.969H500.63C503.908 176.969 506.566 174.311 506.566 171.033V109.721C506.566 106.442 503.908 103.785 500.63 103.785Z" fill="url(#paint26_linear_1_6)"/>
<path id="Vector_102" d="M429.735 163.768C428.16 163.764 426.65 163.136 425.537 162.02C424.424 160.905 423.799 159.393 423.799 157.818V147.189C423.799 146.798 423.722 146.41 423.571 146.049C423.421 145.687 423.201 145.359 422.923 145.083L420.789 142.963C420.111 142.276 419.731 141.349 419.731 140.384C419.731 139.418 420.111 138.492 420.789 137.804L422.923 135.684C423.201 135.408 423.421 135.08 423.571 134.719C423.722 134.358 423.799 133.97 423.799 133.578V122.964C423.799 121.388 424.424 119.877 425.537 118.762C426.65 117.646 428.16 117.017 429.735 117.014V119.996C428.948 119.996 428.193 120.309 427.637 120.865C427.08 121.422 426.767 122.177 426.767 122.964V133.564C426.775 134.351 426.624 135.132 426.326 135.86C426.027 136.588 425.586 137.249 425.029 137.804L422.895 139.924C422.831 139.987 422.781 140.062 422.747 140.145C422.713 140.227 422.695 140.316 422.695 140.405C422.695 140.494 422.713 140.583 422.747 140.665C422.781 140.748 422.831 140.823 422.895 140.886L425.029 143.02C425.586 143.575 426.027 144.236 426.326 144.964C426.624 145.693 426.775 146.473 426.767 147.26V157.888C426.767 158.677 427.08 159.433 427.636 159.992C428.192 160.551 428.947 160.867 429.735 160.871V163.768Z" fill="#EEF8FF"/>
<path id="Vector_103" d="M472.956 116.985C473.739 116.987 474.515 117.143 475.238 117.445C475.96 117.746 476.617 118.187 477.169 118.742C477.722 119.298 478.16 119.956 478.458 120.68C478.756 121.405 478.908 122.181 478.906 122.964V133.564C478.907 134.352 479.217 135.108 479.769 135.67L481.903 137.804C482.242 138.143 482.51 138.545 482.694 138.988C482.877 139.43 482.972 139.905 482.972 140.384C482.972 140.863 482.877 141.337 482.694 141.78C482.51 142.222 482.242 142.625 481.903 142.963L479.769 145.083C479.217 145.645 478.907 146.401 478.906 147.189V157.818C478.903 159.395 478.275 160.906 477.16 162.021C476.044 163.136 474.533 163.764 472.956 163.768V160.8C473.746 160.796 474.502 160.481 475.061 159.922C475.619 159.364 475.935 158.608 475.938 157.818V147.189C475.928 146.402 476.076 145.62 476.375 144.892C476.674 144.163 477.117 143.503 477.677 142.949L479.811 140.815C479.932 140.684 480 140.513 480 140.334C480 140.156 479.932 139.984 479.811 139.854L477.677 137.72C477.117 137.166 476.674 136.505 476.375 135.777C476.076 135.048 475.928 134.267 475.938 133.48V122.964C475.935 122.176 475.619 121.421 475.06 120.864C474.501 120.308 473.745 119.996 472.956 119.996V116.985Z" fill="#EEF8FF"/>
<path id="Vector_104" d="M464.942 131.557C464.348 130.962 463.642 130.49 462.864 130.168C462.087 129.845 461.254 129.679 460.412 129.679C459.571 129.679 458.738 129.845 457.961 130.168C457.183 130.49 456.477 130.962 455.883 131.557L451.346 136.094L446.823 131.557C446.245 130.895 445.537 130.358 444.742 129.981C443.948 129.604 443.085 129.394 442.206 129.366C441.327 129.337 440.452 129.49 439.634 129.814C438.817 130.139 438.075 130.628 437.456 131.252C436.836 131.875 436.351 132.62 436.032 133.439C435.712 134.259 435.565 135.135 435.599 136.014C435.633 136.892 435.848 137.755 436.23 138.547C436.612 139.339 437.153 140.043 437.82 140.617L442.343 145.154L451.402 154.214L460.434 145.154L464.971 140.617C465.564 140.021 466.034 139.313 466.354 138.535C466.674 137.756 466.837 136.923 466.834 136.081C466.832 135.24 466.663 134.407 466.339 133.631C466.014 132.855 465.539 132.15 464.942 131.557V131.557Z" fill="#EEF8FF"/>
</g>
<path id="Gear" d="M380.479 109.085V106.258C380.483 105.993 380.433 105.73 380.333 105.484C380.232 105.239 380.083 105.016 379.894 104.83C379.705 104.644 379.481 104.498 379.234 104.401C378.987 104.304 378.723 104.257 378.458 104.265H373.794C373.424 102.728 372.814 101.259 371.985 99.912L375.292 96.6047C375.48 96.4204 375.63 96.2005 375.731 95.9578C375.833 95.7151 375.886 95.4545 375.886 95.1913C375.886 94.928 375.833 94.6674 375.731 94.4248C375.63 94.1821 375.48 93.9622 375.292 93.7779L373.327 91.8699C373.143 91.6818 372.923 91.5325 372.681 91.4305C372.438 91.3285 372.177 91.276 371.914 91.276C371.651 91.276 371.39 91.3285 371.148 91.4305C370.905 91.5325 370.685 91.6818 370.501 91.8699L367.193 95.1772C365.877 94.32 364.431 93.6805 362.911 93.2832V88.6191C362.911 88.0981 362.704 87.5984 362.336 87.23C361.967 86.8615 361.467 86.6545 360.946 86.6545H358.12C357.599 86.6545 357.099 86.8615 356.73 87.23C356.362 87.5984 356.155 88.0981 356.155 88.6191V93.2832C354.617 93.6496 353.147 94.2604 351.802 95.0924L348.438 91.8699C348.255 91.6801 348.035 91.5291 347.792 91.4261C347.55 91.323 347.288 91.2698 347.025 91.2698C346.761 91.2698 346.5 91.323 346.257 91.4261C346.014 91.5291 345.795 91.6801 345.611 91.8699L343.59 93.891C343.399 94.0732 343.246 94.2924 343.142 94.5354C343.038 94.7784 342.984 95.04 342.984 95.3044C342.984 95.5687 343.038 95.8304 343.142 96.0733C343.246 96.3163 343.399 96.5355 343.59 96.7177L346.897 100.025C346.057 101.366 345.446 102.837 345.088 104.378H340.41C339.889 104.378 339.389 104.585 339.021 104.954C338.653 105.322 338.446 105.822 338.446 106.343V109.17C338.446 109.691 338.653 110.19 339.021 110.559C339.389 110.927 339.889 111.134 340.41 111.134H345.088C345.448 112.675 346.06 114.145 346.897 115.487L343.647 118.724C343.453 118.905 343.299 119.124 343.194 119.367C343.088 119.61 343.034 119.872 343.034 120.137C343.034 120.402 343.088 120.664 343.194 120.908C343.299 121.151 343.453 121.37 343.647 121.551L345.668 123.572C345.849 123.765 346.068 123.919 346.311 124.025C346.554 124.13 346.816 124.185 347.081 124.185C347.346 124.185 347.608 124.13 347.851 124.025C348.095 123.919 348.313 123.765 348.495 123.572L351.745 120.137C353.09 120.969 354.56 121.58 356.099 121.946V126.625C356.095 126.885 356.143 127.144 356.24 127.385C356.337 127.627 356.481 127.847 356.664 128.032C356.847 128.218 357.064 128.365 357.305 128.465C357.545 128.566 357.803 128.618 358.063 128.618H360.89C361.15 128.625 361.409 128.581 361.653 128.487C361.896 128.394 362.118 128.253 362.306 128.072C362.494 127.892 362.644 127.676 362.748 127.438C362.852 127.199 362.907 126.942 362.911 126.681V122.003C364.444 121.619 365.904 120.989 367.236 120.137L370.543 123.445C370.725 123.636 370.945 123.789 371.188 123.893C371.431 123.997 371.692 124.051 371.957 124.051C372.221 124.051 372.483 123.997 372.725 123.893C372.968 123.789 373.188 123.636 373.37 123.445L375.349 121.551C375.538 121.367 375.689 121.148 375.792 120.905C375.896 120.662 375.949 120.401 375.949 120.137C375.949 119.873 375.896 119.612 375.792 119.37C375.689 119.127 375.538 118.907 375.349 118.724L372.041 115.417C372.868 114.069 373.478 112.6 373.85 111.063H378.458C378.722 111.071 378.985 111.025 379.231 110.929C379.476 110.833 379.7 110.688 379.889 110.503C380.078 110.319 380.227 110.098 380.329 109.854C380.43 109.61 380.481 109.349 380.479 109.085ZM360.862 115.629C359.167 115.918 357.424 115.661 355.884 114.894C354.345 114.128 353.09 112.891 352.301 111.363C351.512 109.835 351.229 108.096 351.495 106.397C351.76 104.698 352.559 103.128 353.776 101.913C354.993 100.699 356.565 99.903 358.265 99.6415C359.964 99.38 361.703 99.6662 363.229 100.459C364.755 101.251 365.989 102.509 366.753 104.05C367.516 105.59 367.77 107.334 367.476 109.028C367.189 110.676 366.399 112.195 365.215 113.376C364.03 114.558 362.51 115.345 360.862 115.629V115.629Z" fill="#B3CEE8"/>
<g id="Spinner">
<path id="Vector_105" d="M318.786 175.782C318.265 175.777 317.764 175.579 317.38 175.227C316.996 174.874 316.757 174.392 316.708 173.874C316.279 169.996 314.558 166.376 311.822 163.596C309.086 160.817 305.493 159.039 301.623 158.549C297.753 158.059 293.831 158.886 290.489 160.897C287.146 162.908 284.578 165.985 283.197 169.634L287.253 170.482L282.123 174.241L279.989 175.824H279.593L278.109 173.125L275.07 167.881L279.126 168.729C280.722 164.099 283.848 160.152 287.988 157.537C292.128 154.922 297.036 153.796 301.902 154.344C306.768 154.892 311.302 157.082 314.756 160.552C318.211 164.023 320.38 168.567 320.906 173.435C320.942 173.733 320.914 174.035 320.824 174.321C320.733 174.607 320.582 174.87 320.381 175.093C320.18 175.315 319.934 175.492 319.658 175.611C319.383 175.73 319.085 175.788 318.786 175.782V175.782Z" fill="#EEF8FF"/>
<path id="Vector_106" d="M279.734 181.534C280.255 181.539 280.756 181.736 281.14 182.089C281.523 182.441 281.763 182.923 281.812 183.442C282.24 187.319 283.961 190.939 286.698 193.719C289.434 196.499 293.027 198.277 296.896 198.767C300.766 199.257 304.688 198.429 308.031 196.419C311.374 194.408 313.942 191.33 315.323 187.682L311.266 186.834L316.397 183.061L318.531 181.492H318.927L320.467 184.149L323.506 189.392L319.436 188.544C317.829 193.162 314.7 197.096 310.562 199.701C306.425 202.306 301.525 203.427 296.666 202.88C291.808 202.332 287.279 200.149 283.825 196.689C280.371 193.229 278.196 188.697 277.656 183.838C277.629 183.548 277.662 183.255 277.754 182.978C277.846 182.701 277.994 182.446 278.189 182.23C278.384 182.013 278.623 181.839 278.889 181.72C279.155 181.6 279.442 181.537 279.734 181.534V181.534Z" fill="#EEF8FF"/>
<path id="Vector_107" d="M279.988 175.782L279.706 175.98L279.593 175.782H279.988Z" fill="#EEF8FF"/>
</g>
<g id="Floor" style="mix-blend-mode:overlay" opacity="0.28">
<path d="M482.963 461.367C482.75 464.544 481.33 467.519 478.993 469.682C476.657 471.845 473.582 473.032 470.398 472.999H122.709C121.053 472.999 119.414 472.663 117.891 472.011C116.369 471.359 114.995 470.405 113.852 469.207C112.709 468.008 111.821 466.59 111.242 465.039C110.663 463.487 110.405 461.834 110.483 460.18C110.644 457.008 112.057 454.029 114.412 451.898C116.765 449.73 119.849 448.529 123.048 448.534H470.737C472.394 448.534 474.035 448.87 475.558 449.523C477.081 450.176 478.456 451.131 479.599 452.331C480.743 453.531 481.63 454.951 482.208 456.504C482.786 458.057 483.043 459.712 482.963 461.367Z" fill="black"/>
</g>
<g id="Lines">
<g id="RightLines">
<path id="Vector_108" d="M472.956 203.074H542.819" stroke="url(#paint27_linear_1_6)" stroke-width="4.16944" stroke-linecap="round" stroke-linejoin="round"/>
<path id="Vector_109" d="M472.956 215.526H518.184" stroke="white" stroke-width="4.16944" stroke-linecap="round" stroke-linejoin="round"/>
<path id="Vector_110" d="M472.956 227.695H518.184" stroke="white" stroke-width="4.16944" stroke-linecap="round" stroke-linejoin="round"/>
<path id="Vector_111" style="mix-blend-mode:color-dodge" d="M472.956 227.977C479.833 227.977 485.408 222.403 485.408 215.526C485.408 208.649 479.833 203.074 472.956 203.074C466.079 203.074 460.504 208.649 460.504 215.526C460.504 222.403 466.079 227.977 472.956 227.977Z" fill="url(#paint28_radial_1_6)"/>
</g>
<g id="LeftLines">
<path id="Vector_112" d="M110.342 271.269H40.4789" stroke="white" stroke-width="4.16944" stroke-linecap="round" stroke-linejoin="round"/>
<path id="Vector_113" d="M110.342 283.721H65.1281" stroke="url(#paint29_linear_1_6)" stroke-width="4.16944" stroke-linecap="round" stroke-linejoin="round"/>
<path id="Vector_114" d="M110.342 295.89H65.1281" stroke="url(#paint30_linear_1_6)" stroke-width="4.16944" stroke-linecap="round" stroke-linejoin="round"/>
<path id="Vector_115" style="mix-blend-mode:color-dodge" d="M115.573 282.552C121.921 279.906 124.921 272.615 122.275 266.268C119.629 259.92 112.338 256.92 105.991 259.566C99.6435 262.212 96.6429 269.503 99.289 275.85C101.935 282.198 109.226 285.198 115.573 282.552Z" fill="url(#paint31_radial_1_6)"/>
</g>
</g>
<path id="LaptopLight" d="M352.381 285.049L339.59 232.288C339.482 231.837 339.226 231.436 338.862 231.149C338.497 230.861 338.047 230.705 337.583 230.705H256.385C256.084 230.705 255.786 230.77 255.512 230.897C255.239 231.024 254.996 231.209 254.802 231.44L254.308 231.172L269.261 150.157C269.261 150.157 386.571 91.9547 409.75 161.591C411.163 165.945 449.918 222.027 450.639 225.872C461.282 283.551 352.381 285.049 352.381 285.049Z" fill="url(#paint32_radial_1_6)"/>
<g id="Plants">
<g id="PlantRight">
<path id="Vector_116" d="M564.005 304.455C556.26 324.511 546.35 343.662 534.452 361.569C536.346 347.789 549.561 257.093 573.334 227.596C576.33 246.747 570.676 277.827 564.005 304.455Z" fill="url(#paint33_linear_1_6)"/>
<path id="Vector_117" d="M540.855 351.478C538.791 354.884 536.614 358.262 534.452 361.569C531.022 366.733 527.451 371.76 523.739 376.65C523.668 375.42 519.583 308.441 540.826 273.757C548.317 299.367 544.261 332.638 540.855 351.478Z" fill="#B3CEE8"/>
<g id="Vector_118" style="mix-blend-mode:overlay" opacity="0.25">
<path d="M573.334 227.553C568.378 245.937 563.751 264.4 559.454 282.943C557.32 292.215 555.285 301.515 553.476 310.843C551.667 320.172 549.985 329.542 548.911 338.969L547.257 338.772C548.473 329.288 550.31 319.931 552.26 310.603C554.211 301.275 556.373 292.003 558.649 282.746C563.172 264.287 568.067 245.89 573.334 227.553Z" fill="black"/>
</g>
<g id="Vector_119" style="mix-blend-mode:overlay" opacity="0.25">
<path d="M540.826 273.757C539.54 281.007 538.466 288.286 537.519 295.593C536.572 302.9 535.766 310.193 535.187 317.529C534.607 324.864 534.155 332.199 534.127 339.549C534.02 346.873 534.402 354.197 535.272 361.47L533.618 361.682C532.879 354.32 532.634 346.916 532.883 339.521C533.053 332.143 533.66 324.793 534.367 317.458C535.074 310.123 536.035 302.815 537.109 295.537C538.183 288.258 539.399 280.979 540.826 273.757Z" fill="black"/>
</g>
</g>
<g id="PlantLeft">
<path id="Vector_120" d="M80.6327 393.483C80.6327 393.483 47.5881 373.328 35.1645 334.122C69.7356 338.531 100.547 395.335 100.547 395.335L80.6327 393.483Z" fill="#B3CEE8"/>
<g id="Vector_121" style="mix-blend-mode:overlay" opacity="0.25">
<path d="M35.1645 334.15C44.5399 342.63 53.6938 351.355 62.6263 360.325C71.5447 369.3 80.2652 378.487 88.3779 388.24L87.0918 389.285C79.2334 379.392 70.7391 370.064 62.0327 360.905C53.3263 351.746 44.3514 342.856 35.1645 334.15Z" fill="black"/>
</g>
<path id="Vector_122" d="M118.723 426.499C118.118 426.723 117.467 426.791 116.829 426.697C108.436 419.466 100.51 411.71 93.0986 403.476C52.3088 380.197 12.7485 429.298 12.7485 429.298C12.7485 429.298 29.2284 371.986 75.4032 381.611C121.592 391.321 118.723 426.499 118.723 426.499Z" fill="url(#paint34_linear_1_6)"/>
<g id="Vector_123" style="mix-blend-mode:overlay" opacity="0.25">
<path d="M12.7485 429.298C18.3871 420.322 25.241 412.169 33.1152 405.073C41.0018 398.091 50.2735 392.197 60.7748 389.964C66.0202 388.848 71.4356 388.79 76.7035 389.794C81.9551 390.83 86.9803 392.792 91.5439 395.589C92.717 396.239 93.7771 397.073 94.8936 397.794L96.5473 398.925L98.102 400.183C99.1337 401.031 100.194 401.85 101.197 402.727L102.681 404.14L104.095 405.638C105.887 407.673 107.372 409.959 108.504 412.422C109.692 414.916 110.402 417.61 110.596 420.365H108.914C108.755 417.839 108.137 415.363 107.091 413.058C106.056 410.702 104.68 408.512 103.006 406.557L101.706 405.143L100.293 403.73C99.3175 402.868 98.2857 402.048 97.2822 401.214L95.784 399.985L94.1728 398.854C93.0845 398.133 92.0669 397.313 90.922 396.663C86.4953 393.876 81.6096 391.895 76.4915 390.812C71.3612 389.773 66.0747 389.773 60.9445 390.812C50.5562 392.833 41.3269 398.571 33.3837 405.384C25.4421 412.372 18.4988 420.419 12.7485 429.298V429.298Z" fill="black"/>
</g>
</g>
</g>
</g>
<defs>
<linearGradient id="paint0_linear_1_6" x1="310.107" y1="36.3527" x2="297.246" y2="463.841" gradientUnits="userSpaceOnUse">
<stop stop-color="#1C4259"/>
<stop offset="1" stop-color="#0B2935"/>
</linearGradient>
<radialGradient id="paint1_radial_1_6" cx="0" cy="0" r="1" gradientUnits="userSpaceOnUse" gradientTransform="translate(98.3769 229.494) rotate(-23.32) scale(64.0681 56.3799)">
<stop stop-color="#3E84FF"/>
<stop offset="0.04" stop-color="#4181FF" stop-opacity="0.95"/>
<stop offset="0.32" stop-color="#536AFF" stop-opacity="0.62"/>
<stop offset="0.56" stop-color="#6158FF" stop-opacity="0.35"/>
<stop offset="0.76" stop-color="#6B4BFF" stop-opacity="0.16"/>
<stop offset="0.91" stop-color="#7243FF" stop-opacity="0.04"/>
<stop offset="1" stop-color="#7440FF" stop-opacity="0"/>
</radialGradient>
<linearGradient id="paint2_linear_1_6" x1="51.687" y1="53.2425" x2="102.045" y2="467.883" gradientUnits="userSpaceOnUse">
<stop stop-color="#3E84FF"/>
<stop offset="1" stop-color="#7440FF"/>
</linearGradient>
<radialGradient id="paint3_radial_1_6" cx="0" cy="0" r="1" gradientUnits="userSpaceOnUse" gradientTransform="translate(116.151 232.938) scale(12.4518)">
<stop stop-color="white"/>
<stop offset="1"/>
</radialGradient>
<linearGradient id="paint4_linear_1_6" x1="29328.1" y1="-38.2024" x2="29328.1" y2="997.087" gradientUnits="userSpaceOnUse">
<stop stop-color="#3E84FF"/>
<stop offset="1" stop-color="#7440FF"/>
</linearGradient>
<linearGradient id="paint5_linear_1_6" x1="1250.09" y1="1279.92" x2="281.858" y2="2027.69" gradientUnits="userSpaceOnUse">
<stop stop-color="#3E84FF"/>
<stop offset="1" stop-color="#7440FF"/>
</linearGradient>
<linearGradient id="paint6_linear_1_6" x1="1455.56" y1="1495.72" x2="492.973" y2="2241.48" gradientUnits="userSpaceOnUse">
<stop stop-color="#3E84FF"/>
<stop offset="1" stop-color="#7440FF"/>
</linearGradient>
<linearGradient id="paint7_linear_1_6" x1="1345.42" y1="1616.01" x2="271.782" y2="2316.61" gradientUnits="userSpaceOnUse">
<stop stop-color="#3E84FF"/>
<stop offset="1" stop-color="#7440FF"/>
</linearGradient>
<linearGradient id="paint8_linear_1_6" x1="3467.46" y1="2196.35" x2="4007.38" y2="2196.35" gradientUnits="userSpaceOnUse">
<stop stop-color="#3E84FF"/>
<stop offset="1" stop-color="#7440FF"/>
</linearGradient>
<linearGradient id="paint9_linear_1_6" x1="13035.4" y1="8751.25" x2="13021.4" y2="8218.46" gradientUnits="userSpaceOnUse">
<stop stop-color="#3E84FF"/>
<stop offset="1" stop-color="#7440FF"/>
</linearGradient>
<linearGradient id="paint10_linear_1_6" x1="10448.4" y1="8817.22" x2="10434.4" y2="8284.16" gradientUnits="userSpaceOnUse">
<stop stop-color="#3E84FF"/>
<stop offset="1" stop-color="#7440FF"/>
</linearGradient>
<linearGradient id="paint11_linear_1_6" x1="398.726" y1="256.796" x2="390.684" y2="389.639" gradientUnits="userSpaceOnUse">
<stop stop-color="#2B2B2B"/>
<stop offset="1" stop-color="#111111"/>
</linearGradient>
<linearGradient id="paint12_linear_1_6" x1="4534.98" y1="6675.17" x2="5023.95" y2="5724.2" gradientUnits="userSpaceOnUse">
<stop stop-color="#3E84FF"/>
<stop offset="1" stop-color="#7440FF"/>
</linearGradient>
<linearGradient id="paint13_linear_1_6" x1="360.607" y1="231.539" x2="343.732" y2="279.749" gradientUnits="userSpaceOnUse">
<stop stop-color="#F78B7C"/>
<stop offset="1" stop-color="#FFB7A9"/>
</linearGradient>
<linearGradient id="paint14_linear_1_6" x1="16562.1" y1="11891" x2="18676.4" y2="17584.9" gradientUnits="userSpaceOnUse">
<stop stop-color="#3E84FF"/>
<stop offset="1" stop-color="#7440FF"/>
</linearGradient>
<linearGradient id="paint15_linear_1_6" x1="8078.95" y1="3946.5" x2="7978.36" y2="4461.77" gradientUnits="userSpaceOnUse">
<stop stop-color="#F78B7C"/>
<stop offset="1" stop-color="#FFB7A9"/>
</linearGradient>
<linearGradient id="paint16_linear_1_6" x1="11714.7" y1="4489.23" x2="11835.3" y2="5225.74" gradientUnits="userSpaceOnUse">
<stop stop-color="#2B2B2B"/>
<stop offset="1" stop-color="#111111"/>
</linearGradient>
<linearGradient id="paint17_linear_1_6" x1="6991.95" y1="6311.93" x2="6413.17" y2="5674.96" gradientUnits="userSpaceOnUse">
<stop stop-color="#3E84FF"/>
<stop offset="1" stop-color="#7440FF"/>
</linearGradient>
<linearGradient id="paint18_linear_1_6" x1="20288.1" y1="8639.05" x2="19128.4" y2="11919.7" gradientUnits="userSpaceOnUse">
<stop stop-color="#F78B7C"/>
<stop offset="1" stop-color="#FFB7A9"/>
</linearGradient>
<linearGradient id="paint19_linear_1_6" x1="145.874" y1="240.811" x2="146.467" y2="342.39" gradientUnits="userSpaceOnUse">
<stop stop-color="#6D5BD8"/>
<stop offset="1" stop-color="#C7CFFF"/>
</linearGradient>
<linearGradient id="paint20_linear_1_6" x1="8108.5" y1="27524.5" x2="-2045.73" y2="35749" gradientUnits="userSpaceOnUse">
<stop stop-color="#6D5BD8"/>
<stop offset="1" stop-color="#C7CFFF"/>
</linearGradient>
<linearGradient id="paint21_linear_1_6" x1="13317.9" y1="30134.1" x2="21628.1" y2="35931.6" gradientUnits="userSpaceOnUse">
<stop stop-color="#6D5BD8"/>
<stop offset="1" stop-color="#C7CFFF"/>
</linearGradient>
<linearGradient id="paint22_linear_1_6" x1="12612.8" y1="26482.3" x2="12832.4" y2="37589" gradientUnits="userSpaceOnUse">
<stop stop-color="#6D5BD8"/>
<stop offset="1" stop-color="#C7CFFF"/>
</linearGradient>
<linearGradient id="paint23_linear_1_6" x1="1530.08" y1="3119.29" x2="1432.91" y2="2203.91" gradientUnits="userSpaceOnUse">
<stop stop-color="#3E84FF"/>
<stop offset="1" stop-color="#7440FF"/>
</linearGradient>
<linearGradient id="paint24_linear_1_6" x1="2333.33" y1="2584.35" x2="2120.29" y2="1953.97" gradientUnits="userSpaceOnUse">
<stop stop-color="#3E84FF"/>
<stop offset="1" stop-color="#7440FF"/>
</linearGradient>
<radialGradient id="paint25_radial_1_6" cx="0" cy="0" r="1" gradientUnits="userSpaceOnUse" gradientTransform="translate(47519.5 -11544.6) rotate(-23.32) scale(7011.61 5502.68)">
<stop stop-color="#3E84FF"/>
<stop offset="0.04" stop-color="#4181FF" stop-opacity="0.95"/>
<stop offset="0.32" stop-color="#536AFF" stop-opacity="0.62"/>
<stop offset="0.56" stop-color="#6158FF" stop-opacity="0.35"/>
<stop offset="0.76" stop-color="#6B4BFF" stop-opacity="0.16"/>
<stop offset="0.91" stop-color="#7243FF" stop-opacity="0.04"/>
<stop offset="1" stop-color="#7440FF" stop-opacity="0"/>
</radialGradient>
<linearGradient id="paint26_linear_1_6" x1="33052.4" y1="3492.95" x2="35119.9" y2="11412.6" gradientUnits="userSpaceOnUse">
<stop stop-color="#3E84FF"/>
<stop offset="1" stop-color="#7440FF"/>
</linearGradient>
<linearGradient id="paint27_linear_1_6" x1="-nan" y1="-nan" x2="-nan" y2="-nan" gradientUnits="userSpaceOnUse">
<stop stop-color="#3E84FF"/>
<stop offset="1" stop-color="#7440FF"/>
</linearGradient>
<radialGradient id="paint28_radial_1_6" cx="0" cy="0" r="1" gradientUnits="userSpaceOnUse" gradientTransform="translate(8725.02 4000.62) scale(219.401 219.401)">
<stop stop-color="white"/>
<stop offset="1"/>
</radialGradient>
<linearGradient id="paint29_linear_1_6" x1="-nan" y1="-nan" x2="-nan" y2="-nan" gradientUnits="userSpaceOnUse">
<stop stop-color="#3E84FF"/>
<stop offset="1" stop-color="#7440FF"/>
</linearGradient>
<linearGradient id="paint30_linear_1_6" x1="-nan" y1="-nan" x2="-nan" y2="-nan" gradientUnits="userSpaceOnUse">
<stop stop-color="#3E84FF"/>
<stop offset="1" stop-color="#7440FF"/>
</linearGradient>
<radialGradient id="paint31_radial_1_6" cx="0" cy="0" r="1" gradientUnits="userSpaceOnUse" gradientTransform="translate(1981.28 5034.62) scale(219.401)">
<stop stop-color="white"/>
<stop offset="1"/>
</radialGradient>
<radialGradient id="paint32_radial_1_6" cx="0" cy="0" r="1" gradientUnits="userSpaceOnUse" gradientTransform="translate(201.32 443.276) scale(328.863)">
<stop stop-color="#FF00FF"/>
<stop offset="1" stop-color="#00FFFF" stop-opacity="0"/>
</radialGradient>
<linearGradient id="paint33_linear_1_6" x1="16563.1" y1="21300.3" x2="11063.6" y2="27948" gradientUnits="userSpaceOnUse">
<stop stop-color="#3E84FF"/>
<stop offset="1" stop-color="#7440FF"/>
</linearGradient>
<linearGradient id="paint34_linear_1_6" x1="1475.68" y1="13460.5" x2="3215.41" y2="17018.6" gradientUnits="userSpaceOnUse">
<stop stop-color="#3E84FF"/>
<stop offset="1" stop-color="#7440FF"/>
</linearGradient>
</defs>
</svg>
